<?xml version='1.0' encoding='utf-8'?><!-- Generator: DarwingMaster 1.1.5, SVG Export Plug-In . SVG Version: 6.00 Build 0)--><svg version="1.1" x="0" y="0" viewBox="0 0 60 60" xmlns="http://www.w3.org/2000/svg" xmlns:xlink="http://www.w3.org/1999/xlink">
  <style type="text/css">.st2{stroke:none;stroke-width:0;stroke-linecap:butt;stroke-linejoin:miter;fill:#c0c0c0;fill-opacity:1;fill-rule:nonZero;}
.st3{stroke:none;stroke-width:0;stroke-linecap:butt;stroke-linejoin:miter;fill:url(#7CBD0AD9-37F8-0710-572E-EAA9D92F46E2);fill-rule:nonZero;}
.st4{stroke:none;stroke-width:0;stroke-linecap:butt;stroke-linejoin:miter;fill:url(#B4465CC6-DA45-42C5-A750-38AEDEA375EF);fill-rule:nonZero;}</style>
  <defs>
    <linearGradient x1="0%" y1="50%" x2="100%" y2="50%" id="7CBD0AD9-37F8-0710-572E-EAA9D92F46E2">
      <stop offset="0%" style="stop-color:#4d98de;stop-opacity:1;"/>
      <stop offset="100%" style="stop-color:#8022f4;stop-opacity:1;"/>
    </linearGradient>
    <linearGradient x1="0%" y1="50%" x2="100%" y2="50%" id="B4465CC6-DA45-42C5-A750-38AEDEA375EF">
      <stop offset="0%" style="stop-color:#4d98de;stop-opacity:1;"/>
      <stop offset="100%" style="stop-color:#8022f4;stop-opacity:1;"/>
    </linearGradient>
  </defs>
  <path class="st2" id="路径1" d="M -24.550001525878905 -10.94999885559085 C -24.550001525878905 -10.94999885559085 -23.550001525878905 -9.94999885559085 -23.550001525878905 -9.94999885559085 "/>
  <g id="图层1">
    <path class="st3" id="路径6" d="M 27.809501564424117 13.939451567585833 C 27.809501564424117 13.939451567585833 13.461640672691491 9.291522940485736 13.461640672691491 9.291522940485736 C 13.461640672691491 9.291522940485736 3.9320912744512118 29.11636137036175 3.9320912744512118 29.11636137036175 C 3.9320912744512118 29.11636137036175 14.960670915111315 45.62125078088065 14.960670915111315 45.62125078088065 C 14.960670915111315 45.62125078088065 24.81144107958439 37.17909470308646 24.81144107958439 37.17909470308646 C 24.81144107958439 37.17909470308646 14.63945014887849 36.704816271749856 14.63945014887849 36.704816271749856 C 14.63945014887849 36.704816271749856 9.821138655386214 25.32213391966782 9.821138655386214 25.32213391966782 C 9.821138655386214 25.32213391966782 16.245553980042573 17.449111959477783 16.245553980042573 17.449111959477783 C 16.245553980042573 17.449111959477783 27.809501564424117 13.939451567585833 27.809501564424117 13.939451567585833  Z "/>
    <path class="st4" id="路径8" d="M 28.480285369672927 11.461471738476916 C 28.480285369672927 11.461471738476916 33.34172969132679 47.02279092757515 33.34172969132679 47.02279092757515 C 33.34172969132679 47.02279092757515 43.04331766090499 36.445529780816685 43.04331766090499 36.445529780816685 C 43.04331766090499 36.445529780816685 50.826465890975825 46.655668831297234 50.76032480680955 46.06095474505633 C 50.69418372264333 45.46624065881526 54.47591246021622 7.018141258967293 54.47591246021622 7.018141258967293 C 54.47591246021622 7.018141258967293 49.09572443166992 36.52742767440312 48.798064674444234 36.567936336191934 C 48.50040491721839 36.60844499798068 43.08743659549343 34.12528378843716 43.08743659549343 34.12528378843716 C 43.08743659549343 34.12528378843716 36.03177394864484 37.70159181960447 36.03177394864484 37.70159181960447 C 36.03177394864484 37.70159181960447 28.480285369672927 11.461471738476916 28.480285369672927 11.461471738476916  Z "/>
  </g>
</svg>