<?xml version='1.0' encoding='utf-8'?><!-- Generator: DarwingMaster 1.1.5, SVG Export Plug-In . SVG Version: 6.00 Build 0)--><svg version="1.1" x="0" y="0" viewBox="0 0 377 252" xmlns="http://www.w3.org/2000/svg" xmlns:xlink="http://www.w3.org/1999/xlink">
  <style type="text/css">.st2{stroke:none;stroke-width:0;stroke-linecap:butt;stroke-linejoin:miter;fill:#a32422;fill-opacity:1;fill-rule:nonZero;}
.st3{stroke:none;stroke-width:0;stroke-linecap:butt;stroke-linejoin:miter;fill:#dc382c;fill-opacity:1;fill-rule:nonZero;}
.st4{stroke:none;stroke-width:0;stroke-linecap:butt;stroke-linejoin:miter;fill:#a32422;fill-opacity:1;fill-rule:nonZero;}
.st5{stroke:none;stroke-width:0;stroke-linecap:butt;stroke-linejoin:miter;fill:#dc382c;fill-opacity:1;fill-rule:nonZero;}
.st6{stroke:none;stroke-width:0;stroke-linecap:butt;stroke-linejoin:miter;fill:#a32422;fill-opacity:1;fill-rule:nonZero;}
.st7{stroke:none;stroke-width:0;stroke-linecap:butt;stroke-linejoin:miter;fill:#dc382c;fill-opacity:1;fill-rule:nonZero;}
.st8{stroke:none;stroke-width:0;stroke-linecap:butt;stroke-linejoin:miter;fill:#ffffff;fill-opacity:1;fill-rule:nonZero;}
.st9{stroke:none;stroke-width:0;stroke-linecap:butt;stroke-linejoin:miter;fill:#ffffff;fill-opacity:1;fill-rule:nonZero;}
.st10{stroke:none;stroke-width:0;stroke-linecap:butt;stroke-linejoin:miter;fill:#ffffff;fill-opacity:1;fill-rule:nonZero;}
.st11{stroke:none;stroke-width:0;stroke-linecap:butt;stroke-linejoin:miter;fill:#741113;fill-opacity:1;fill-rule:nonZero;}
.st12{stroke:none;stroke-width:0;stroke-linecap:butt;stroke-linejoin:miter;fill:#ac2724;fill-opacity:1;fill-rule:nonZero;}</style>
  <defs/>
  <g id="组2">
    <g id="Layer_2">
      <g id="Layer_1-2">
        <g id="svg_2">
          <path class="st2" id="svg_3" d="M 318.816675563726 187.05374594340168 C 303.594954408128 194.21973304186832 224.59812461600058 223.46328333340563 207.58102096512738 231.48989143144274 C 190.5639173142543 239.51649952948034 181.45039964801845 239.2881715091861 168.1411511504315 233.56240730796026 C 154.83190265284492 227.83664310673424 71.05389121569007 197.17043361182553 55.87120011433748 190.63673949263506 C 48.22130948229356 187.4050198207778 44.318304057781376 184.64751988337716 44.318304057781376 182.06565688466486 C 44.318304057781376 182.06565688466486 44.318304057781376 156.05382626498567 44.318304057781376 156.05382626498567 C 44.318304057781376 156.05382626498567 153.75857616110403 134.67881082666707 171.4196757070218 128.9179192377035 C 189.0807752529396 123.15702764874003 195.18897874230123 123.01651809778976 210.1960345995509 127.96947976878883 C 225.20309045680017 132.92244143978797 315.1673654918068 147.53543473862192 330.01830113207643 152.38301424640827 C 330.01830113207643 152.38301424640827 330.01830113207643 178.026007294843 330.01830113207643 178.026007294843 C 330.01830113207643 180.6956887628991 326.60317138562783 183.29511545548036 318.816675563726 187.03618224953328 C 318.816675563726 187.03618224953328 318.816675563726 187.05374594340168 318.816675563726 187.05374594340168 C 318.816675563726 187.05374594340168 318.816675563726 187.05374594340168 318.816675563726 187.05374594340168  Z "/>
          <path class="st3" id="svg_4" d="M 318.816675563726 161.1648611808036 C 303.594954408128 168.295720891533 224.59812461600058 197.53927118306984 207.58102096512738 205.42536973015746 C 190.5639173142543 213.31146827724416 181.45039964801845 213.24121350176904 168.1411511504315 207.53301299441205 C 154.83190265284492 201.824812487055 71.05389121569007 171.15860299214597 55.87120011433748 164.67759995456186 C 40.68850901298497 158.1965969169782 40.395783606146566 153.66516389882997 55.28574930066066 148.4311831259302 C 70.17571499517477 143.19720235303055 153.75857616110403 113.742887735068 171.4196757070218 107.94686875836702 C 189.0807752529396 102.15084978166603 195.18897874230123 102.02790392458454 210.1960345995509 106.99842928945237 C 225.20309045680017 111.96895465432006 303.8681647878443 140.08842853825462 318.641040319623 144.98869912764735 C 333.4139158514018 149.88896971704008 334.09694180069135 153.91105561299304 318.816675563726 161.0243516298534 C 318.816675563726 161.0243516298534 318.816675563726 161.1648611808036 318.816675563726 161.1648611808036 C 318.816675563726 161.1648611808036 318.816675563726 161.1648611808036 318.816675563726 161.1648611808036  Z "/>
          <path class="st4" id="svg_5" d="M 318.816675563726 144.69011633187768 C 303.594954408128 151.8385397364757 224.59812461600058 181.064526334144 207.58102096512738 188.95062488123125 C 190.5639173142543 196.8367234283186 181.52845975650845 196.7664686528429 168.2192112589219 191.02314075774865 C 154.90996276133518 185.27981286265387 71.05389121569009 154.78924030643265 55.87120011433754 148.27310988111117 C 48.221309482293584 145.00626282151615 44.31830405778139 142.26632657798464 44.31830405778139 139.66689988540355 C 44.31830405778139 139.66689988540355 44.31830405778139 113.7428877350679 44.31830405778139 113.7428877350679 C 44.31830405778139 113.7428877350679 153.75857616110403 92.29761752127433 171.4196757070219 86.53672593231083 C 189.0807752529397 80.77583434334733 195.1889787423013 80.6177610985282 210.1960345995509 85.64097754500246 C 225.20309045680028 90.66419399147657 315.1673654918068 105.13667773936047 330.01830113207643 110.01938463488425 C 330.01830113207643 110.01938463488425 330.01830113207643 135.66237768331922 330.01830113207643 135.66237768331922 C 330.01830113207643 138.33205915137546 326.60317138562783 141.0017406194317 318.816675563726 144.69011633187768  Z "/>
          <path class="st5" id="svg_6" d="M 318.816675563726 118.67828571219825 C 303.594954408128 125.84427281066503 224.59812461600058 155.07025940833327 207.58102096512738 162.95635795542034 C 190.5639173142543 170.84245650250753 181.45039964801845 170.78976542090112 168.1411511504315 165.06400121967533 C 154.83190265284492 159.3382370184495 71.05389121569007 128.79497338062185 55.87120011433748 122.26127926143168 C 40.68850901298497 115.72758514224137 40.41529863326912 111.28397059343733 55.28574930066066 106.04998982053748 C 70.15619996805225 100.81600904763792 153.75857616110403 71.29143965420022 171.4196757070218 65.65349392231829 C 189.0807752529396 60.015548190436405 195.18897874230123 59.66427431306057 210.1960345995509 64.56454490245326 C 225.20309045680017 69.46481549184597 303.8681647878443 97.83018108994334 318.641040319623 102.58994212838577 C 333.4139158514018 107.34970316682805 334.09694180069135 111.52986230760027 318.816675563726 118.62559463059189 C 318.816675563726 118.62559463059189 318.816675563726 118.67828571219825 318.816675563726 118.67828571219825  Z "/>
          <path class="st6" id="svg_7" d="M 318.816675563726 100.72819057829393 C 303.594954408128 107.89417767676066 224.59812461600058 137.13772796829755 207.58102096512738 145.0062628215161 C 190.5639173142543 152.87479767473434 181.52845975650845 152.82210659312796 168.2192112589219 147.11390608577096 C 154.90996276133518 141.40570557841386 71.05389121569009 110.82731455284879 55.87120011433754 104.31118412752726 C 48.221309482293584 101.07946445566982 44.31830405778139 98.32196451826957 44.31830405778139 95.72253782568835 C 44.31830405778139 95.72253782568835 44.31830405778139 69.71070720600899 44.31830405778139 69.71070720600899 C 44.31830405778139 69.71070720600899 153.75857616110403 48.33569176769042 171.4196757070219 42.59236387259579 C 189.0807752529397 36.84903597750114 195.1889787423013 36.67339903881319 210.1960345995509 41.62636070981227 C 225.20309045680028 46.57932238081132 315.12833543756193 61.19231567964534 329.97927107783084 66.07502257516927 C 329.97927107783084 66.07502257516927 329.97927107783084 91.71801562360416 329.97927107783084 91.71801562360416 C 330.01830113207643 94.42282447939799 326.60317138562783 97.05737855971661 318.816675563726 100.72819057829393  Z "/>
          <path class="st7" id="svg_8" d="M 318.816675563726 74.751487346352 C 303.594954408128 81.77696489386837 224.59812461600058 111.19615212409339 207.58102096512738 119.01199589570531 C 190.5639173142543 126.82783966731735 181.45039964801845 126.81027597344851 168.1411511504315 121.1196391599603 C 154.83190265284492 115.42900234647207 71.05389121569007 84.81548393316933 55.87120011433748 78.31691720171663 C 40.68850901298497 71.81835047026392 40.395783606146566 67.30448114598464 55.28574930066066 62.07050037308494 C 70.17571499517477 56.83651960018527 153.75857616110403 27.329513900616384 171.4196757070218 21.60374969939051 C 189.0807752529396 15.877985498164648 195.18897874230123 15.70234855947674 210.1960345995509 20.655310230475813 C 225.20309045680017 25.60827190147487 303.8681647878443 53.76287317314685 318.641040319623 58.645580068670725 C 333.4139158514018 63.52828696419463 334.09694180069135 67.58550024788528 318.816675563726 74.69879626474558 C 318.816675563726 74.69879626474558 318.816675563726 74.751487346352 318.816675563726 74.751487346352  Z "/>
        </g>
        <path class="st8" id="多边形1" d="M 187.75375757746514 37.81503867128338 C 187.75375757746514 37.81503867128338 206.60526603569127 32.24734758087625 206.60526603569127 32.24734758087625 C 206.60526603569127 32.24734758087625 201.49233845840234 43.24222034474051 201.49233845840234 43.24222034474051 C 201.49233845840234 43.24222034474051 220.67559880440416 49.70565854945262 220.67559880440416 49.70565854945262 C 220.67559880440416 49.70565854945262 195.95006301342715 52.02406895414038 195.95006301342715 52.02406895414038 C 195.95006301342715 52.02406895414038 190.388283261254 64.03763247838533 190.388283261254 64.03763247838533 C 190.388283261254 64.03763247838533 181.4503972658129 50.6365355305017 181.4503972658129 50.6365355305017 C 181.4503972658129 50.6365355305017 152.8608869978962 48.318128475822675 152.8608869978962 48.318128475822675 C 152.8608869978962 48.318128475822675 174.21032398999685 41.39803215351659 174.21032398999685 41.39803215351659 C 174.21032398999685 41.39803215351659 167.78987828002013 30.75443460703164 167.78987828002013 30.75443460703164 C 167.78987828002013 30.75443460703164 187.75375757746514 37.81503867128338 187.75375757746514 37.81503867128338 C 187.75375757746514 37.81503867128338 187.75375757746514 37.81503867128338 187.75375757746514 37.81503867128338 C 187.75375757746514 37.81503867128338 187.75375757746514 37.81503867128338 187.75375757746514 37.81503867128338 C 187.75375757746514 37.81503867128338 187.75375757746514 37.81503867128338 187.75375757746514 37.81503867128338  Z "/>
        <path class="st9" id="多边形2" d="M 188.9441754230441 107.9468671503627 C 188.9441754230441 107.9468671503627 142.73258315687596 90.68175956135026 142.73258315687596 90.68175956135026 C 142.73258315687596 90.68175956135026 208.9275590276872 81.53106996369694 208.9275590276872 81.53106996369694 C 208.9275590276872 81.53106996369694 188.9441754230441 107.9468671503627 188.9441754230441 107.9468671503627 C 188.9441754230441 107.9468671503627 188.9441754230441 107.9468671503627 188.9441754230441 107.9468671503627 C 188.9441754230441 107.9468671503627 188.9441754230441 107.9468671503627 188.9441754230441 107.9468671503627 C 188.9441754230441 107.9468671503627 188.9441754230441 107.9468671503627 188.9441754230441 107.9468671503627  Z "/>
        <path class="st10" id="svg_11" d="M 124.87633601971365 56.379863559596686 C 144.39136314227474 56.379863559596686 160.25708019291687 61.91242712826584 160.25708019291687 68.67444926775038 C 160.25708019291687 75.43647140723476 144.3523330880295 80.96903497590405 124.87633601971365 80.96903497590405 C 105.4003389513975 80.96903497590405 89.47607681938776 75.43647140723476 89.47607681938776 68.67444926775038 C 89.47607681938776 61.91242712826584 105.34179387002996 56.379863559596686 124.87633601971365 56.379863559596686 C 124.87633601971365 56.379863559596686 124.87633601971365 56.379863559596686 124.87633601971365 56.379863559596686  Z "/>
        <path class="st11" id="多边形3" d="M 249.96765868422762 52.99007077692039 C 249.96765868422762 52.99007077692039 289.13431752365636 66.91808055087299 289.13431752365636 66.91808055087299 C 289.13431752365636 66.91808055087299 250.00669707619193 80.84608697481688 250.00669707619193 80.84608697481688 C 250.00669707619193 80.84608697481688 249.96765868422762 52.99007077692039 249.96765868422762 52.99007077692039 C 249.96765868422762 52.99007077692039 249.96765868422762 52.99007077692039 249.96765868422762 52.99007077692039 C 249.96765868422762 52.99007077692039 249.96765868422762 52.99007077692039 249.96765868422762 52.99007077692039 C 249.96765868422762 52.99007077692039 249.96765868422762 52.99007077692039 249.96765868422762 52.99007077692039  Z "/>
        <path class="st12" id="多边形4" d="M 249.96765868422762 52.99007077692039 C 249.96765868422762 52.99007077692039 250.00669707619193 80.84608697481688 250.00669707619193 80.84608697481688 C 250.00669707619193 80.84608697481688 245.75242056792206 82.33900497367459 245.75242056792206 82.33900497367459 C 245.75242056792206 82.33900497367459 206.60526603569127 68.41099519972191 206.60526603569127 68.41099519972191 C 206.60526603569127 68.41099519972191 249.96765868422762 52.99007077692039 249.96765868422762 52.99007077692039 C 249.96765868422762 52.99007077692039 249.96765868422762 52.99007077692039 249.96765868422762 52.99007077692039 C 249.96765868422762 52.99007077692039 249.96765868422762 52.99007077692039 249.96765868422762 52.99007077692039 C 249.96765868422762 52.99007077692039 249.96765868422762 52.99007077692039 249.96765868422762 52.99007077692039  Z "/>
      </g>
    </g>
  </g>
</svg>