<?xml version='1.0' encoding='utf-8'?><!-- Generator: DarwingMaster 1.1.5, SVG Export Plug-In . SVG Version: 6.00 Build 0)--><svg version="1.1" x="0" y="0" viewBox="0 0 377 252" xmlns="http://www.w3.org/2000/svg" xmlns:xlink="http://www.w3.org/1999/xlink">
  <style type="text/css">.st2{stroke:none;stroke-width:1;stroke-linecap:butt;stroke-linejoin:miter;fill:#6cb52d;fill-opacity:1;fill-rule:nonzero;}
.st3{stroke:none;stroke-width:1;stroke-linecap:butt;stroke-linejoin:miter;fill:#6cb52d;fill-opacity:1;fill-rule:nonZero;}
.st4{stroke:none;stroke-width:1;stroke-linecap:butt;stroke-linejoin:miter;fill:#6cb52d;fill-opacity:1;fill-rule:nonzero;}
.st5{stroke:none;stroke-width:1;stroke-linecap:butt;stroke-linejoin:miter;fill:#6cb52d;fill-opacity:1;fill-rule:nonZero;}
.st6{stroke:none;stroke-width:1;stroke-linecap:butt;stroke-linejoin:miter;fill:#6cb52d;fill-opacity:1;fill-rule:nonZero;}
.st7{stroke:none;stroke-width:1;stroke-linecap:butt;stroke-linejoin:miter;fill:#6cb52d;fill-opacity:1;fill-rule:nonZero;}
.st8{stroke:none;stroke-width:1;stroke-linecap:butt;stroke-linejoin:miter;fill:#6cb52d;fill-opacity:1;fill-rule:nonzero;}
.st9{stroke:none;stroke-width:1;stroke-linecap:butt;stroke-linejoin:miter;fill:#6cb52d;fill-opacity:1;fill-rule:nonZero;}</style>
  <defs/>
  <g id="图层1">
    <path class="st2" id="复合路径3" d="M 94.18242881161359 55.414062826833195 C 92.76103150704363 60.860437702141176 90.9230177511346 65.68878422280339 88.88894919459551 70.01498270531586 C 79.91944206575928 55.568569915495075 67.37193482542028 46.414024912318816 53.52556453090564 46.414024912318816 C 26.29845409337285 46.414024912318816 4.095247921991603 81.25537340541813 4.095247921991603 124.28559759756017 C 4.095247921991603 146.76637899776375 10.197453591609394 167.00680761237987 19.87765937273034 181.29871331354025 C 19.87765937273034 181.29871331354025 21.715673128639718 183.8867070486151 21.715673128639718 183.8867070486151 C 30.26856380613607 195.28160483737815 41.39467374190586 202.1957970549666 53.50105768082682 202.1957970549666 C 79.47831876434113 202.1957970549666 100.87279888312247 170.25145647426478 102.71081263903149 129.92510633369386 C 104.15671679367973 110.34133284588744 100.38266188154672 85.27255771060861 94.18242881161359 55.414062826833195  Z M 27.033659595736363 181.95536844035018 C 25.612262291166473 184.85237635274757 22.965522482657928 185.1613905300701 21.127508726748896 182.92103774448265 C 19.289494970839836 180.6806849588952 19.093440170209405 176.50899356504277 20.514837474779185 173.6119856526455 C 21.936234779348336 170.71497774024812 24.582974587857624 170.40596356292588 26.420988343766677 172.64631634851304 C 28.1364678492817 174.88666913410037 28.455056900305976 179.0583605279529 27.033659595736363 181.95536844035018  Z M 93.86383976058906 158.66342482467542 C 81.73294897158966 184.19572122593718 55.657660487759806 175.54332426091037 39.04201613434198 176.81800774236535 C 39.04201613434198 176.81800774236535 36.0766872748091 177.127021919688 33.13586526535443 177.78367704649781 C 33.13586526535443 177.78367704649781 34.26318036897862 176.97251483102679 35.68457767354811 176.16135261555553 C 47.3988520112087 169.7493084361157 52.91289327893586 168.4359981824955 60.04438665186266 162.68060912986653 C 73.40061994480207 151.90373969574813 86.73234638766209 128.30278190275118 89.40359304624991 103.8906618942823 C 84.30616822986221 127.33711259861873 68.8178389800687 147.57754121323467 54.750907034844985 155.7664169122781 C 45.07070125372393 161.40592564841165 27.646330847706082 166.8523005237186 27.646330847706082 166.8523005237186 C 27.646330847706082 166.8523005237186 26.935632195421334 166.19564539690867 26.935632195421334 166.19564539690867 C 15.09882360736672 157.07972716589825 14.682207156027687 116.59886993666596 36.29724892551783 103.58164771695989 C 45.781399906008566 97.78763189216527 54.75090703484497 100.993653981885 65.04378406793558 97.16960353752027 C 75.9248255029168 93.15241923232942 88.57036014357114 80.28970410128598 93.66778495995898 63.40980466505025 C 99.37788102831637 90.56442549725442 106.31331960061311 132.66760715742936 93.86383976058906 158.66342482467542  Z "/>
    <g id="组35">
      <path class="st3" id="路径196" d="M 130.7466491291642 154.80074760814563 C 129.52130662522464 153.83507830401317 128.71258057262483 151.59472551842583 128.71258057262483 148.85222469468994 C 128.71258057262483 144.9895474781601 130.64862172884915 141.78352538844013 133.19733413704287 141.78352538844013 C 134.10408758995806 141.78352538844013 134.9373204926369 142.24704665442385 135.54999174460661 142.7491946925726 C 140.13277270933963 147.57754121323495 145.0341427250973 149.97240108748338 149.29833463880612 149.97240108748338 C 153.97914300385452 149.97240108748338 156.74841706275745 146.76637899776364 156.74841706275745 141.78352538844013 C 156.74841706275745 141.78352538844013 156.74841706275745 141.47451121111783 156.74841706275745 141.47451121111783 C 156.74841706275745 135.52598829766208 151.65099224636973 133.59464968939722 146.03892357832723 130.89077563782632 C 139.0054576057154 127.6847535481062 131.06523818018837 123.16542120476676 131.06523818018837 108.71900841494467 C 131.06523818018837 108.71900841494467 131.06523818018837 108.40999423762226 131.06523818018837 108.40999423762226 C 131.06523818018837 94.11808853646194 138.61334800445508 85.42706479926998 148.07299213486672 85.42706479926998 C 153.17041695125462 85.42706479926998 158.46389656827262 87.66741758485763 163.14470493332092 91.53009480138674 C 164.6641296382057 92.80477828284192 165.79144474182993 95.04513106842917 165.79144474182993 98.09664606948762 C 165.79144474182993 102.11383037467873 163.75737618529064 105.1653453757374 161.20866377709672 105.1653453757374 C 160.30191032418162 105.1653453757374 159.78726647252728 104.85633119841476 159.0765678202422 104.35418316026586 C 155.2044855077938 101.14816107054592 151.23437579503025 99.21682246228112 147.87693733423643 99.21682246228112 C 143.5882385704485 99.21682246228112 141.16206041264866 102.422844552001 141.16206041264866 106.59453594585322 C 141.16206041264866 106.59453594585322 141.16206041264866 106.90355012317586 141.16206041264866 106.90355012317586 C 141.16206041264866 112.54305885930965 146.3575126293517 114.7834116448967 151.96958129739392 117.68041955729409 C 159.0030472700059 121.04094873567523 166.84523929521774 126.17830943365969 166.84523929521774 139.69767969151417 C 166.84523929521774 139.69767969151417 166.84523929521774 140.00669386883635 166.84523929521774 140.00669386883635 C 166.84523929521774 155.92092400093946 159.00304727000585 163.76215875049468 149.12678668825467 163.76215875049468 C 142.8775399181639 163.80078552265996 136.26069039689125 160.7492705216016 130.7466491291642 154.80074760814563  Z "/>
      <path class="st4" id="复合路径4" d="M 170.91337640829644 94.27259562512334 C 170.91337640829644 89.44424910446124 173.2660340158604 85.58157188793142 176.30488342562987 85.58157188793142 C 179.3437328353995 85.58157188793142 181.81892469335693 89.44424910446124 181.81892469335693 94.27259562512334 C 181.81892469335693 94.27259562512334 181.81892469335693 99.40995632310761 181.81892469335693 99.40995632310761 C 185.39692480485988 91.53009480138682 190.3718153708536 85.27255771060872 198.1159799957504 85.27255771060872 C 209.31561048175627 85.27255771060872 220.31918616713193 99.25544923444654 220.31918616713193 124.47873145838666 C 220.31918616713193 124.47873145838666 220.31918616713193 124.78774563570896 220.31918616713193 124.78774563570896 C 220.31918616713193 149.85652077098763 209.41363788207144 163.9939193834864 198.1159799957504 163.9939193834864 C 190.17576057022325 163.9939193834864 185.17636315415058 157.73638229270853 181.81892469335693 150.66768298645866 C 181.81892469335693 150.66768298645866 181.81892469335693 177.32015578051448 181.81892469335693 177.32015578051448 C 181.81892469335693 182.14850230117668 179.36823968547813 186.01117951770652 176.30488342562987 186.01117951770652 C 173.3395545660967 186.01117951770652 170.91337640829644 182.3030093898376 170.91337640829644 177.32015578051448 C 170.91337640829644 177.32015578051448 170.91337640829644 94.27259562512334 170.91337640829644 94.27259562512334  Z M 209.31561048175632 124.78774563570896 C 209.31561048175632 124.78774563570896 209.31561048175632 124.44010468622132 209.31561048175632 124.44010468622132 C 209.31561048175632 109.8391848077387 203.0908705617441 100.33699885507518 195.66529498787165 100.33699885507518 C 188.2397194139989 100.33699885507518 181.69639044296312 110.1481989850606 181.69639044296312 124.44010468622132 C 181.69639044296312 124.44010468622132 181.69639044296312 124.74911886354361 181.69639044296312 124.74911886354361 C 181.69639044296312 139.19553165336555 188.21521256392035 148.85222469468994 195.66529498787165 148.85222469468994 C 203.115377411823 149.04535855551643 209.31561048175632 139.69767969151428 209.31561048175632 124.78774563570896  Z "/>
      <path class="st5" id="路径199" d="M 224.60788493091968 94.27259562512334 C 224.60788493091968 89.44424910446124 226.96054253848342 85.58157188793142 229.99939194825288 85.58157188793142 C 233.0627482081012 85.58157188793142 235.51343321597997 89.44424910446124 235.51343321597997 94.27259562512334 C 235.51343321597997 94.27259562512334 235.51343321597997 98.44428701897515 235.51343321597997 98.44428701897515 C 236.02807706763463 92.03224283953604 242.74295398922197 85.58157188793142 247.54629660466455 85.58157188793142 C 251.00176246577348 85.58157188793142 252.93780362199774 89.09660815497331 252.93780362199774 94.07946176429682 C 252.93780362199774 98.5601673354712 251.0017624657734 101.61168233652963 248.5510774578947 102.422844552001 C 240.70888543268285 104.50869024892701 235.41540581566503 115.28555968304529 235.41540581566503 130.1954937388506 C 235.41540581566503 130.1954937388506 235.41540581566503 155.07113501330258 235.41540581566503 155.07113501330258 C 235.41540581566503 159.74497444530374 232.96472080778616 163.56902488966819 229.90136454793782 163.56902488966819 C 226.93603568840456 163.56902488966819 224.50985753060465 159.86085476179989 224.50985753060465 155.07113501330258 C 224.50985753060465 155.07113501330258 224.50985753060465 94.27259562512334 224.50985753060465 94.27259562512334 C 224.50985753060465 94.27259562512334 224.60788493091968 94.27259562512334 224.60788493091968 94.27259562512334  Z "/>
      <path class="st6" id="路径200" d="M 257.32452978610024 94.42710271378415 C 257.32452978610024 89.59875619312221 259.6771873936642 85.73607897659268 262.71603680343355 85.73607897659268 C 265.7548862132037 85.73607897659268 268.23007807116096 89.59875619312221 268.23007807116096 94.42710271378415 C 268.23007807116096 94.42710271378415 268.23007807116096 155.30289564629442 268.23007807116096 155.30289564629442 C 268.23007807116096 160.13124216695667 265.779393063282 163.8007855226599 262.71603680343355 163.8007855226599 C 259.7507079439006 163.8007855226599 257.32452978610024 160.09261539479138 257.32452978610024 155.30289564629442 C 257.32452978610024 155.30289564629442 257.32452978610024 94.42710271378415 257.32452978610024 94.42710271378415  Z "/>
      <path class="st7" id="路径201" d="M 273.8176398891246 94.42710271378415 C 273.8176398891246 89.59875619312221 276.17029749668836 85.73607897659268 279.20914690645816 85.73607897659268 C 282.2479963162275 85.73607897659268 284.7231881741849 89.59875619312221 284.7231881741849 94.42710271378415 C 284.7231881741849 94.42710271378415 284.7231881741849 97.94213898082624 284.7231881741849 97.94213898082624 C 287.7865444340332 90.87343967457706 292.2712979984518 85.58157188793142 299.6968735723244 85.58157188793142 C 310.5043944570691 85.58157188793142 316.7046275270021 96.97646967669372 316.7046275270021 114.47439746757455 C 316.7046275270021 114.47439746757455 316.7046275270021 155.10976178546792 316.7046275270021 155.10976178546792 C 316.7046275270021 159.93810830613018 314.35196991943883 163.60765166183342 311.31312050966903 163.60765166183342 C 308.2742710998999 163.60765166183342 305.7990792419423 159.8994815339649 305.7990792419423 155.10976178546792 C 305.7990792419423 155.10976178546792 305.7990792419423 119.80489202638562 305.7990792419423 119.80489202638562 C 305.7990792419423 108.06235328813484 302.12305173012385 101.34129493137242 295.5062022088513 101.34129493137242 C 289.1834348885244 101.34129493137242 284.698681324106 108.40999423762223 284.698681324106 120.1139062037078 C 284.698681324106 120.1139062037078 284.698681324106 155.30289564629442 284.698681324106 155.30289564629442 C 284.698681324106 160.13124216695667 282.2479963162274 163.8007855226599 279.18464005637907 163.8007855226599 C 276.21931119684575 163.8007855226599 273.79313303904564 160.09261539479138 273.79313303904564 155.30289564629442 C 273.79313303904564 155.30289564629442 273.8176398891246 94.42710271378415 273.8176398891246 94.42710271378415 C 273.8176398891246 94.42710271378415 273.8176398891246 94.42710271378415 273.8176398891246 94.42710271378415  Z "/>
      <path class="st8" id="复合路径5" d="M 365.03213588237145 85.42706479926998 C 361.968779622523 85.42706479926998 359.51809461464404 89.2897420157998 359.51809461464404 94.11808853646194 C 359.51809461464404 94.11808853646194 359.51809461464404 99.25544923444657 359.51809461464404 99.25544923444657 C 355.9400945031409 91.37558771272596 350.9652039371473 85.11805062194792 343.2210393122507 85.11805062194792 C 332.02140882624474 85.11805062194792 321.01783314086924 99.10094214578523 321.01783314086924 124.32422436972574 C 321.01783314086924 124.32422436972574 321.01783314086924 124.63323854704781 321.01783314086924 124.63323854704781 C 321.01783314086924 149.70201368232637 331.92338142592985 163.83941229482502 343.2210393122507 163.83941229482502 C 351.16125873777764 163.83941229482502 356.16065615385025 157.5818752040471 359.51809461464404 150.66768298645866 C 359.00345076298925 164.30293356080915 353.7099711459716 171.37163286705828 344.4463818161903 171.37163286705828 C 338.932340548463 171.37163286705828 334.15350478309927 169.28578717013204 329.76677861899645 165.4231099536026 C 329.2521347673419 164.95958868761898 328.54143611505685 164.76645482679237 327.8307374627718 164.76645482679237 C 325.28202505457773 164.76645482679237 323.14992909772354 167.97247691651216 323.14992909772354 171.83515413304207 C 323.14992909772354 175.19568331142295 324.37527160166314 177.62916995783655 326.213285357572 178.74934635063028 C 332.0214088262451 183.2300519218049 338.0255870955474 185.5090314795575 344.7649708672142 185.5090314795575 C 353.41588894502604 185.5090314795575 360.15527271669237 182.30300938983754 364.4439714804804 175.3888171722495 C 368.4140811932441 169.13128008147117 370.5461771500984 159.6677209009735 370.5461771500984 146.95951285859002 C 370.5461771500984 146.95951285859002 370.5461771500984 94.27259562512334 370.5461771500984 94.27259562512334 C 370.52167030001976 89.28974201579983 368.09549214221977 85.42706479926998 365.03213588237145 85.42706479926998  Z M 345.76975172044445 148.85222469468994 C 338.22164189617786 148.85222469468994 332.11943622655974 139.54317260285308 332.11943622655974 124.59461177488247 C 332.11943622655974 124.59461177488247 332.11943622655974 124.28559759756017 332.11943622655974 124.28559759756017 C 332.11943622655974 109.68467771907707 338.34417614657195 100.18249176641358 345.76975172044445 100.18249176641358 C 353.19532729431694 100.18249176641358 359.73865626535314 109.99369189639974 359.73865626535314 124.28559759756017 C 359.73865626535314 124.28559759756017 359.73865626535314 124.59461177488247 359.73865626535314 124.59461177488247 C 359.8366836656684 139.07965133686935 353.3178615447108 148.85222469468994 345.76975172044445 148.85222469468994  Z "/>
      <path class="st9" id="路径204" d="M 268.3281054714761 64.8776220073315 C 268.3281054714761 69.70596852799383 265.87742046359745 73.56864574452375 262.814064203749 73.56864574452375 C 259.7507079439006 73.56864574452375 257.3000229360217 69.70596852799383 257.3000229360217 64.8776220073315 C 257.3000229360217 60.04927548666916 259.7507079439006 56.186598270139164 262.814064203749 56.186598270139164 C 265.779393063282 56.03209118147884 268.3281054714761 59.89476839800872 268.3281054714761 64.8776220073315  Z "/>
    </g>
  </g>
</svg>